<svg width="36" height="32" viewBox="0 0 36 32" fill="none" xmlns="http://www.w3.org/2000/svg">
<g clip-path="url(#clip0)">
<path d="M17.5231 9.26624L5.99996 18.7569V29C5.99996 29.2652 6.10532 29.5196 6.29285 29.7071C6.48039 29.8946 6.73474 30 6.99996 30L14.0037 29.9819C14.2681 29.9805 14.5211 29.8746 14.7076 29.6872C14.894 29.4998 14.9987 29.2462 14.9987 28.9819V23C14.9987 22.7348 15.1041 22.4804 15.2916 22.2929C15.4791 22.1053 15.7335 22 15.9987 22H19.9987C20.2639 22 20.5183 22.1053 20.7058 22.2929C20.8934 22.4804 20.9987 22.7348 20.9987 23V28.9775C20.9983 29.1091 21.0239 29.2394 21.0739 29.3611C21.124 29.4828 21.1976 29.5934 21.2905 29.6866C21.3834 29.7798 21.4938 29.8537 21.6153 29.9042C21.7368 29.9546 21.8671 29.9806 21.9987 29.9806L29 30C29.2652 30 29.5195 29.8946 29.7071 29.7071C29.8946 29.5196 30 29.2652 30 29V18.75L18.4793 9.26624C18.3439 9.15707 18.1752 9.09753 18.0012 9.09753C17.8272 9.09753 17.6585 9.15707 17.5231 9.26624V9.26624ZM35.725 15.7169L30.5 11.41V2.75311C30.5 2.5542 30.4209 2.36344 30.2803 2.22278C30.1396 2.08213 29.9489 2.00311 29.75 2.00311H26.25C26.051 2.00311 25.8603 2.08213 25.7196 2.22278C25.579 2.36344 25.5 2.5542 25.5 2.75311V7.29124L19.9043 2.68749C19.3673 2.2456 18.6935 2.004 17.9981 2.004C17.3027 2.004 16.6288 2.2456 16.0918 2.68749L0.27121 15.7169C0.195265 15.7796 0.132432 15.8568 0.0863021 15.9438C0.0401721 16.0309 0.0116489 16.1262 0.00236228 16.2243C-0.00692435 16.3224 0.0032076 16.4213 0.0321792 16.5155C0.0611508 16.6097 0.108394 16.6972 0.17121 16.7731L1.76496 18.7106C1.8276 18.7868 1.90466 18.8499 1.99171 18.8962C2.07876 18.9426 2.1741 18.9713 2.27227 18.9808C2.37044 18.9902 2.46951 18.9802 2.56381 18.9514C2.65811 18.9225 2.74579 18.8753 2.82184 18.8125L17.5231 6.70374C17.6585 6.59457 17.8272 6.53503 18.0012 6.53503C18.1752 6.53503 18.3439 6.59457 18.4793 6.70374L33.1812 18.8125C33.2571 18.8753 33.3447 18.9225 33.4388 18.9515C33.533 18.9805 33.632 18.9906 33.7301 18.9813C33.8281 18.972 33.9234 18.9435 34.0105 18.8974C34.0976 18.8513 34.1747 18.7884 34.2375 18.7125L35.8312 16.775C35.894 16.6986 35.941 16.6106 35.9696 16.5161C35.9983 16.4215 36.0079 16.3222 35.998 16.2238C35.9882 16.1255 35.959 16.0301 35.9121 15.9431C35.8652 15.8561 35.8016 15.7792 35.725 15.7169V15.7169Z" fill="#F5F5F5"/>
</g>
<defs>
<clipPath id="clip0">
<rect width="36" height="32" fill="white"/>
</clipPath>
</defs>
</svg>
