<svg width="24" height="24" viewBox="0 0 24 24" fill="none" xmlns="http://www.w3.org/2000/svg">
<path d="M10 18C11.775 17.9996 13.4988 17.4054 14.897 16.312L19.293 20.708L20.707 19.294L16.311 14.898C17.405 13.4997 17.9996 11.7754 18 10C18 5.589 14.411 2 10 2C5.589 2 2 5.589 2 10C2 14.411 5.589 18 10 18ZM10 4C13.309 4 16 6.691 16 10C16 13.309 13.309 16 10 16C6.691 16 4 13.309 4 10C4 6.691 6.691 4 10 4Z" fill="black" fill-opacity="0.7"/>
<path d="M11.238 8.548C11.617 8.928 11.826 9.43 11.826 9.962H13.826C13.8269 9.43643 13.7236 8.91589 13.5221 8.43049C13.3206 7.94508 13.0248 7.50442 12.652 7.134C11.138 5.622 8.513 5.622 7 7.134L8.412 8.55C9.172 7.792 10.482 7.794 11.238 8.548Z" fill="black" fill-opacity="0.7"/>
</svg>
