<svg width="32" height="32" viewBox="0 0 32 32" fill="none" xmlns="http://www.w3.org/2000/svg">
<path d="M20.8344 15.7969L13.1469 10.2344C13.1095 10.2073 13.0654 10.191 13.0193 10.1875C12.9733 10.1839 12.9272 10.1931 12.8861 10.2142C12.845 10.2352 12.8105 10.2672 12.7865 10.3066C12.7625 10.3461 12.7498 10.3914 12.75 10.4375V11.9031C12.75 12.2219 12.9031 12.525 13.1625 12.7125L17.7063 16L13.1625 19.2875C12.9031 19.475 12.75 19.775 12.75 20.0969V21.5625C12.75 21.7656 12.9813 21.8844 13.1469 21.7656L20.8344 16.2031C20.9719 16.1031 20.9719 15.8969 20.8344 15.7969Z" fill="#F5F5F5"/>
<path d="M16 2C8.26875 2 2 8.26875 2 16C2 23.7313 8.26875 30 16 30C23.7313 30 30 23.7313 30 16C30 8.26875 23.7313 2 16 2ZM16 27.625C9.58125 27.625 4.375 22.4188 4.375 16C4.375 9.58125 9.58125 4.375 16 4.375C22.4188 4.375 27.625 9.58125 27.625 16C27.625 22.4188 22.4188 27.625 16 27.625Z" fill="#F5F5F5"/>
</svg>
